# xmcd
#
# Track frame offsets:
#	150
#	18101
#	29345
#	44419
#	62358
#	78257
#	95628
#	109369
#	118972
#	139268
#	150267
#	166428
#	177730
#	190458
#	204008
#	217369
#	240056
#	259449
#
# Disc length: 3801 seconds
#
# Revision: 3
# Processed by: cddbd v1.5.1PL0 Copyright (c) Steve Scherf et al.
# Submitted via: audiograbber 1.83.01
#
DISCID=fd0ed712
DTITLE=diversos - O doutor do baião Humberto Teixeira
DYEAR=2002
DGENRE=frorró
TTITLE0=Asa branca (Maria Bethânia)
TTITLE1=Baião de dois (Caetano Veloso)
TTITLE2=Adeus Maria Fulô (Gal Costa e Sivuca)
TTITLE3=Kalu (Chico Buarque)
TTITLE4=Baião (Carmélia Alves)
TTITLE5=Mangaratiba (Cordel do Fogo Encantado)
TTITLE6=Sinfonia do café (Rita Ribeiro)
TTITLE7=No meu pé de serra (Gil)
TTITLE8=Juazeiro (Gil)
TTITLE9=Respeita Januário (Lenine)
TTITLE10=Qui nem Jiló (Lenine)
TTITLE11=Deus me perdoe (Zeca Pagodinho)
TTITLE12=Dono dos teus olhos (Fagner)
TTITLE13=Xanduzinha (Fagner)
TTITLE14=Légua tirana (Fagner/Elba Ramalho)
TTITLE15=Paraíba (Elba Ramalho)
TTITLE16=Assum Preto (Elba Ramalho)
TTITLE17=Asa Branca
EXTD=
EXTT0=
EXTT1=
EXTT2=
EXTT3=
EXTT4=
EXTT5=
EXTT6=
EXTT7=
EXTT8=
EXTT9=
EXTT10=
EXTT11=
EXTT12=
EXTT13=
EXTT14=
EXTT15=
EXTT16=
EXTT17=
PLAYORDER=
